# xmcd
#
# Track frame offsets: 
#        150
#        5388
#        16714
#        29169
#        41275
#        57303
#        76187
#        98262
#        129901
#        133955
#        148179
#        165607
#        182220
#        194438
#        207784
#        222851
#        243324
#        258795
#        274754
#
# Disc length: 4039 seconds
#
# Revision: 0
# Processed by: cddbd v1.5.2PL0 Copyright (c) Steve Scherf et al.
# Submitted via: ExactAudioCopy v0.99pb5
#
DISCID=010fc513
DTITLE=Otis Redding  - Live in London and Paris (1967) [2008 Stax]  
DYEAR=1900
DGENRE=
TTITLE0=Introduction
TTITLE1=Respect
TTITLE2=My Girl
TTITLE3=Shake
TTITLE4=Day Tripper
TTITLE5=Fa-Fa-Fa-Fa-Fa (Sad Song)
TTITLE6=(I can't Get No) Satisfaction
TTITLE7=Try a Little Tenderness
TTITLE8=Introduction
TTITLE9=Respect
TTITLE10=I can't Turn You Loose
TTITLE11=I've been Loving You Too Long
TTITLE12=My Girl
TTITLE13=Shake
TTITLE14=(I can't Get No) Satisfaction
TTITLE15=Fa-Fa-Fa-Fa-Fa (Sad Song)
TTITLE16=These Arms of Mine
TTITLE17=Day Tripper
TTITLE18=Try a Little Tenderness
EXTD=
EXTT0=
EXTT1=
EXTT2=
EXTT3=
EXTT4=
EXTT5=
EXTT6=
EXTT7=
EXTT8=
EXTT9=
EXTT10=
EXTT11=
EXTT12=
EXTT13=
EXTT14=
EXTT15=
EXTT16=
EXTT17=
EXTT18=
PLAYORDER=
